<mxfile host="app.diagrams.net" modified="2024-08-05T17:43:50.905Z" agent="Mozilla/5.0 (Windows NT 10.0; Win64; x64) AppleWebKit/537.36 (KHTML, like Gecko) Chrome/127.0.0.0 Safari/537.36" etag="TNn6L5MSHxi1VUJV_b2j" version="24.5.4" type="github">
  <diagram name="Página-1" id="bsm2oj6SQXpiPnp1-YW8">
    <mxGraphModel dx="1674" dy="738" grid="1" gridSize="10" guides="1" tooltips="1" connect="1" arrows="1" fold="1" page="1" pageScale="1" pageWidth="827" pageHeight="1169" math="0" shadow="0">
      <root>
        <mxCell id="0" />
        <mxCell id="1" parent="0" />
        <mxCell id="GJdfmRFcMUVtEZ-HNfMy-1" value="CONFIGURACIÓN DEL ENTORNO" style="rounded=0;whiteSpace=wrap;html=1;" vertex="1" parent="1">
          <mxGeometry x="320" y="120" width="160" height="40" as="geometry" />
        </mxCell>
        <mxCell id="GJdfmRFcMUVtEZ-HNfMy-2" value="CARGA DE DATOS" style="rounded=0;whiteSpace=wrap;html=1;" vertex="1" parent="1">
          <mxGeometry x="320" y="200" width="160" height="30" as="geometry" />
        </mxCell>
        <mxCell id="GJdfmRFcMUVtEZ-HNfMy-3" value="EXPLORACIÓN DE DATOS" style="rounded=0;whiteSpace=wrap;html=1;" vertex="1" parent="1">
          <mxGeometry x="320" y="270" width="160" height="40" as="geometry" />
        </mxCell>
        <mxCell id="GJdfmRFcMUVtEZ-HNfMy-5" value="&lt;h2&gt;INICIO&lt;/h2&gt;" style="ellipse;whiteSpace=wrap;html=1;" vertex="1" parent="1">
          <mxGeometry x="345" y="40" width="110" height="40" as="geometry" />
        </mxCell>
        <mxCell id="GJdfmRFcMUVtEZ-HNfMy-7" value="TRANSFORMACIÓN DE DATOS" style="rounded=0;whiteSpace=wrap;html=1;" vertex="1" parent="1">
          <mxGeometry x="320" y="350" width="160" height="40" as="geometry" />
        </mxCell>
        <mxCell id="GJdfmRFcMUVtEZ-HNfMy-8" value="ANÁLISIS DE COMPORTAMIENTO DEL USUARIO" style="rounded=0;whiteSpace=wrap;html=1;" vertex="1" parent="1">
          <mxGeometry x="320" y="430" width="160" height="50" as="geometry" />
        </mxCell>
        <mxCell id="GJdfmRFcMUVtEZ-HNfMy-9" value="VISUALIZACION DE RESULTADOS" style="rounded=0;whiteSpace=wrap;html=1;" vertex="1" parent="1">
          <mxGeometry x="320" y="520" width="160" height="50" as="geometry" />
        </mxCell>
        <mxCell id="GJdfmRFcMUVtEZ-HNfMy-10" value="&lt;h2&gt;FIN&lt;/h2&gt;" style="ellipse;whiteSpace=wrap;html=1;" vertex="1" parent="1">
          <mxGeometry x="345" y="610" width="110" height="40" as="geometry" />
        </mxCell>
        <mxCell id="GJdfmRFcMUVtEZ-HNfMy-11" value="" style="shape=flexArrow;endArrow=classic;html=1;rounded=0;width=14;endSize=6;fillColor=#000033;exitX=0.5;exitY=1;exitDx=0;exitDy=0;" edge="1" parent="1" source="GJdfmRFcMUVtEZ-HNfMy-5">
          <mxGeometry width="50" height="50" relative="1" as="geometry">
            <mxPoint x="399.5" y="85" as="sourcePoint" />
            <mxPoint x="399.5" y="120" as="targetPoint" />
          </mxGeometry>
        </mxCell>
        <mxCell id="GJdfmRFcMUVtEZ-HNfMy-21" value="" style="shape=flexArrow;endArrow=classic;html=1;rounded=0;width=14;endSize=6;fillColor=#000033;" edge="1" parent="1">
          <mxGeometry width="50" height="50" relative="1" as="geometry">
            <mxPoint x="399.5" y="160" as="sourcePoint" />
            <mxPoint x="399.5" y="200" as="targetPoint" />
          </mxGeometry>
        </mxCell>
        <mxCell id="GJdfmRFcMUVtEZ-HNfMy-25" value="" style="shape=flexArrow;endArrow=classic;html=1;rounded=0;width=14;endSize=6;fillColor=#000033;" edge="1" parent="1">
          <mxGeometry width="50" height="50" relative="1" as="geometry">
            <mxPoint x="399.5" y="230" as="sourcePoint" />
            <mxPoint x="399.5" y="270" as="targetPoint" />
          </mxGeometry>
        </mxCell>
        <mxCell id="GJdfmRFcMUVtEZ-HNfMy-26" value="" style="shape=flexArrow;endArrow=classic;html=1;rounded=0;width=14;endSize=6;fillColor=#000033;" edge="1" parent="1">
          <mxGeometry width="50" height="50" relative="1" as="geometry">
            <mxPoint x="399.5" y="310" as="sourcePoint" />
            <mxPoint x="399.5" y="350" as="targetPoint" />
          </mxGeometry>
        </mxCell>
        <mxCell id="GJdfmRFcMUVtEZ-HNfMy-27" value="" style="shape=flexArrow;endArrow=classic;html=1;rounded=0;width=14;endSize=6;fillColor=#000033;" edge="1" parent="1">
          <mxGeometry width="50" height="50" relative="1" as="geometry">
            <mxPoint x="399.5" y="390" as="sourcePoint" />
            <mxPoint x="399.5" y="430" as="targetPoint" />
          </mxGeometry>
        </mxCell>
        <mxCell id="GJdfmRFcMUVtEZ-HNfMy-28" value="" style="shape=flexArrow;endArrow=classic;html=1;rounded=0;width=14;endSize=6;fillColor=#000033;" edge="1" parent="1">
          <mxGeometry width="50" height="50" relative="1" as="geometry">
            <mxPoint x="399.5" y="480" as="sourcePoint" />
            <mxPoint x="399.5" y="520" as="targetPoint" />
          </mxGeometry>
        </mxCell>
        <mxCell id="GJdfmRFcMUVtEZ-HNfMy-29" value="" style="shape=flexArrow;endArrow=classic;html=1;rounded=0;width=14;endSize=6;fillColor=#000033;" edge="1" parent="1">
          <mxGeometry width="50" height="50" relative="1" as="geometry">
            <mxPoint x="399.5" y="570" as="sourcePoint" />
            <mxPoint x="399.5" y="610" as="targetPoint" />
          </mxGeometry>
        </mxCell>
      </root>
    </mxGraphModel>
  </diagram>
</mxfile>
